<?xml version="1.0" encoding="UTF-8" standalone="no"?>
<!DOCTYPE svg PUBLIC "-//W3C//DTD SVG 1.1//EN" "http://www.w3.org/Graphics/SVG/1.1/DTD/svg11.dtd">
<svg width="100%" height="100%" viewBox="0 0 1000 1000" version="1.1" xmlns="http://www.w3.org/2000/svg" xmlns:xlink="http://www.w3.org/1999/xlink" xml:space="preserve" xmlns:serif="http://www.serif.com/" style="fill-rule:evenodd;clip-rule:evenodd;stroke-linejoin:round;stroke-miterlimit:2;">
    <g transform="matrix(1,0,0,1,0,-1528.046072)">
        <g id="SVG-Y-serif-cap" serif:id="SVG Y serif cap" transform="matrix(1,0,0,1,0,1528.046072)">
            <rect x="0" y="0" width="1000" height="1000" style="fill:none;"/>
            <path d="M1000,150L1000,850C1000,932.787 932.787,1000 850,1000L150,1000C67.213,1000 0,932.787 0,850L0,150C0,67.213 67.213,0 150,0L850,0C932.787,0 1000,67.213 1000,150ZM429.992,561.898L273.974,271.908C255.132,236.861 240.811,211.8 231.013,196.726C221.215,181.652 211.416,169.781 201.618,161.113C191.82,152.445 180.514,146.039 167.701,141.893L167.701,114.195L408.512,114.195L408.512,141.893C373.087,146.039 355.375,161.301 355.375,187.681C355.375,198.61 357.919,210.858 363.006,224.425C368.094,237.991 377.233,257.211 390.423,282.084L503.479,497.456L614.84,300.738C629.914,273.981 640.56,252.029 646.778,234.882C652.997,217.735 656.106,202.002 656.106,187.681C656.106,174.115 652.054,163.468 643.952,155.743C635.85,148.017 623.884,143.401 608.057,141.893L608.057,114.195L822.299,114.195L822.299,141.893C806.848,147.546 793.281,155.366 781.598,165.353C769.916,175.339 758.045,188.812 745.986,205.77C733.926,222.729 716.214,251.37 692.849,291.693L535.7,559.637L535.7,742.789C535.7,764.27 536.831,781.605 539.092,794.795C541.353,807.985 545.122,818.537 550.398,826.451C555.674,834.365 562.645,840.583 571.313,845.105C579.981,849.627 593.548,853.961 612.014,858.107L612.014,885.805L353.679,885.805L353.679,858.107C371.768,854.338 385.147,850.287 393.814,845.953C402.482,841.619 409.454,835.401 414.73,827.299C420.006,819.196 423.869,808.55 426.318,795.36C428.768,782.17 429.992,764.647 429.992,742.789L429.992,561.898Z" style="fill:rgb(243,244,246);"/>
            <g transform="matrix(23.153981,0,0,23.153981,-6569.757081,-12585.601408)">
                <path d="M302.313,567.829L295.575,555.305C294.761,553.791 294.142,552.708 293.719,552.057C293.296,551.406 292.873,550.894 292.45,550.519C292.027,550.145 291.538,549.868 290.985,549.689L290.985,548.493L301.385,548.493L301.385,549.689C299.855,549.868 299.09,550.527 299.09,551.667C299.09,552.139 299.2,552.668 299.42,553.254C299.64,553.84 300.034,554.67 300.604,555.744L305.487,565.046L310.296,556.55C310.947,555.394 311.407,554.446 311.676,553.705C311.944,552.965 312.079,552.285 312.079,551.667C312.079,551.081 311.904,550.621 311.554,550.287C311.204,549.954 310.687,549.754 310.003,549.689L310.003,548.493L319.256,548.493L319.256,549.689C318.589,549.933 318.003,550.271 317.499,550.702C316.994,551.134 316.481,551.716 315.96,552.448C315.44,553.18 314.675,554.417 313.666,556.159L306.878,567.731L306.878,575.641C306.878,576.569 306.927,577.318 307.025,577.888C307.123,578.457 307.285,578.913 307.513,579.255C307.741,579.597 308.042,579.865 308.417,580.06C308.791,580.256 309.377,580.443 310.174,580.622L310.174,581.818L299.017,581.818L299.017,580.622C299.798,580.459 300.376,580.284 300.751,580.097C301.125,579.91 301.426,579.641 301.654,579.291C301.882,578.941 302.049,578.482 302.154,577.912C302.26,577.342 302.313,576.585 302.313,575.641L302.313,567.829Z" style="fill:rgb(24,45,52);"/>
            </g>
        </g>
    </g>
</svg>
