<?xml version="1.0" encoding="UTF-8" standalone="no"?>
<!DOCTYPE svg PUBLIC "-//W3C//DTD SVG 1.1//EN" "http://www.w3.org/Graphics/SVG/1.1/DTD/svg11.dtd">
<svg width="100%" height="100%" viewBox="0 0 1000 1000" version="1.1" xmlns="http://www.w3.org/2000/svg" xmlns:xlink="http://www.w3.org/1999/xlink" xml:space="preserve" xmlns:serif="http://www.serif.com/" style="fill-rule:evenodd;clip-rule:evenodd;stroke-linejoin:round;stroke-miterlimit:2;">
    <g transform="matrix(1,0,0,1,-1934.745428,-1794.641109)">
        <g id="SVG-Y-serif-low" serif:id="SVG Y serif low" transform="matrix(1,0,0,1,1934.745428,1794.641109)">
            <rect x="0" y="0" width="1000" height="1000" style="fill:none;"/>
            <path d="M1000,0L1000,1000L0,1000L0,0L1000,0ZM496.41,699.617C477.604,742.016 459.311,776.379 441.531,802.708C423.75,829.036 404.175,848.868 382.805,862.203C361.434,875.538 336.046,882.206 306.64,882.206C287.835,882.206 266.635,879.983 243.042,875.538L243.042,773.986L288.689,773.986C292.792,788.005 297.921,797.75 304.076,803.221C310.231,808.691 319.121,811.427 330.746,811.427C341.004,811.427 350.151,809.461 358.186,805.529C366.221,801.596 374.598,794.843 383.318,785.269C392.037,775.695 402.294,760.993 414.091,741.161C425.887,721.329 439.137,696.198 453.84,665.766L310.231,279.56C300.999,254.599 293.562,237.161 287.92,227.245C282.278,217.329 276.209,209.807 269.712,204.678C263.216,199.549 253.3,195.446 239.965,192.369L239.965,167.237L448.711,167.237L448.711,192.369C432.64,196.13 421.357,199.805 414.86,203.396C408.364,206.986 403.577,211.602 400.499,217.244C397.422,222.886 395.883,230.151 395.883,239.042C395.883,248.274 396.995,257.848 399.217,267.763C401.44,277.679 404.944,289.305 409.731,302.64L501.026,559.598L603.604,313.411C609.417,299.734 613.947,287.168 617.195,275.713C620.444,264.259 622.068,253.573 622.068,243.658C622.068,228.955 618.05,217.842 610.015,210.32C601.98,202.797 588.046,196.814 568.214,192.369L568.214,167.237L760.035,167.237L760.035,192.369C746.7,195.104 736.442,199.293 729.262,204.934C722.081,210.576 714.901,219.466 707.72,231.605C700.54,243.743 691.992,260.754 682.076,282.637L496.41,699.617Z" style="fill:rgb(243,244,246);"/>
            <g transform="matrix(21.007974,0,0,21.007974,-5874.064055,-11565.2617)">
                <path d="M303.241,583.82C302.346,585.838 301.475,587.474 300.628,588.727C299.782,589.981 298.85,590.925 297.833,591.559C296.816,592.194 295.607,592.512 294.208,592.512C293.312,592.512 292.303,592.406 291.18,592.194L291.18,587.36L293.353,587.36C293.548,588.027 293.793,588.491 294.085,588.752C294.378,589.012 294.802,589.142 295.355,589.142C295.843,589.142 296.279,589.049 296.661,588.862C297.044,588.674 297.442,588.353 297.857,587.897C298.272,587.442 298.761,586.742 299.322,585.798C299.884,584.854 300.515,583.657 301.214,582.209L294.378,563.825C293.939,562.637 293.585,561.807 293.316,561.335C293.048,560.863 292.759,560.505 292.45,560.261C292.14,560.016 291.668,559.821 291.034,559.675L291.034,558.478L300.97,558.478L300.97,559.675C300.205,559.854 299.668,560.029 299.359,560.2C299.05,560.37 298.822,560.59 298.675,560.859C298.529,561.127 298.456,561.473 298.456,561.896C298.456,562.336 298.508,562.791 298.614,563.263C298.72,563.735 298.887,564.289 299.115,564.924L303.46,577.155L308.343,565.436C308.62,564.785 308.836,564.187 308.99,563.642C309.145,563.097 309.222,562.588 309.222,562.116C309.222,561.416 309.031,560.887 308.648,560.529C308.266,560.171 307.603,559.886 306.659,559.675L306.659,558.478L315.79,558.478L315.79,559.675C315.155,559.805 314.667,560.004 314.325,560.273C313.983,560.541 313.641,560.965 313.299,561.542C312.958,562.12 312.551,562.93 312.079,563.972L303.241,583.82Z" style="fill:rgb(24,45,52);"/>
            </g>
        </g>
    </g>
</svg>
